<?xml version="1.0" standalone="no"?>
<!DOCTYPE svg PUBLIC "-//W3C//DTD SVG 20010904//EN"
 "http://www.w3.org/TR/2001/REC-SVG-20010904/DTD/svg10.dtd">
<svg version="1.0" xmlns="http://www.w3.org/2000/svg"
 width="896.000000pt" height="896.000000pt" viewBox="0 0 896.000000 896.000000"
 preserveAspectRatio="xMidYMid meet">

<g transform="translate(0.000000,896.000000) scale(0.100000,-0.100000)"
fill="#000000" stroke="none">
<path d="M1350 8016 l0 -773 92 -7 c221 -15 724 1 738 24 3 5 25 12 48 16 24
4 49 12 55 18 7 6 30 17 51 25 22 7 49 22 60 32 11 11 25 19 32 19 6 0 14 7
18 15 3 8 10 15 17 15 14 0 109 101 109 118 0 6 5 12 10 12 6 0 18 18 27 40
10 22 21 40 24 40 4 0 15 27 25 60 10 33 21 60 25 60 13 0 33 176 33 295 -1
122 -21 295 -35 295 -4 0 -15 25 -24 55 -8 30 -19 55 -23 55 -4 0 -13 15 -21
33 -8 17 -25 43 -38 56 -12 13 -23 29 -23 36 0 7 -16 26 -36 41 -20 16 -48 39
-63 51 -14 13 -32 23 -38 23 -7 0 -13 4 -13 9 0 5 -16 15 -35 21 -19 6 -35 15
-35 19 0 4 -25 13 -55 20 -30 7 -55 16 -55 20 0 19 -197 31 -523 31 l-347 0 0
-774z m768 469 c4 -6 25 -16 46 -24 22 -7 51 -24 65 -37 14 -13 31 -24 38 -24
6 0 17 -13 25 -30 7 -16 16 -30 20 -30 4 0 15 -17 25 -37 9 -21 20 -40 24 -43
12 -9 30 -114 36 -210 5 -92 -17 -276 -35 -290 -4 -3 -14 -18 -22 -35 -8 -16
-21 -37 -30 -46 -8 -9 -24 -27 -36 -40 -36 -41 -93 -79 -118 -79 -8 0 -16 -4
-18 -10 -6 -19 -113 -30 -294 -30 l-184 0 0 491 0 491 225 -4 c136 -2 229 -7
233 -13z"/>
<path d="M3253 8368 c-29 -5 -53 -13 -53 -18 0 -4 -13 -10 -29 -13 -16 -3 -35
-12 -42 -19 -8 -7 -27 -20 -44 -28 -16 -8 -35 -22 -41 -30 -7 -8 -32 -36 -56
-62 -42 -43 -78 -102 -78 -126 0 -6 -5 -12 -10 -14 -13 -4 -40 -102 -40 -145
0 -18 -4 -33 -10 -33 -6 0 -10 -38 -10 -95 0 -57 4 -95 10 -95 6 0 10 -14 10
-30 0 -43 31 -160 42 -160 5 0 16 -16 24 -35 8 -19 18 -35 23 -35 5 0 14 -13
21 -30 7 -16 28 -42 47 -57 20 -16 44 -36 56 -45 11 -10 25 -18 32 -18 7 0 22
-9 34 -19 12 -10 38 -22 59 -26 20 -4 40 -12 44 -18 10 -16 296 -16 306 -1 4
6 29 17 56 24 27 8 58 22 68 32 10 10 25 18 33 18 8 0 15 4 15 8 0 5 25 34 55
65 30 31 55 59 55 62 0 11 -64 75 -75 75 -6 0 -16 9 -23 20 -7 11 -19 20 -27
20 -8 0 -15 5 -15 10 0 18 -23 10 -49 -17 -28 -29 -91 -63 -116 -63 -7 0 -15
-6 -17 -12 -3 -9 -33 -13 -100 -13 -77 0 -98 3 -112 18 -10 9 -23 17 -30 17
-10 0 -54 45 -97 98 -5 7 -13 35 -16 62 l-6 50 339 0 c186 0 349 3 362 6 21 6
22 10 22 135 0 71 -3 129 -8 129 -4 0 -15 36 -25 80 -10 44 -22 80 -26 80 -4
0 -16 18 -26 40 -10 22 -22 40 -27 40 -5 0 -13 11 -18 25 -5 14 -13 25 -18 25
-5 0 -21 10 -35 23 -44 39 -71 57 -83 57 -7 0 -19 6 -26 13 -32 32 -211 46
-325 25z m216 -239 c17 -6 31 -14 31 -18 0 -4 13 -20 28 -37 28 -28 52 -97 52
-148 l0 -26 -216 0 -217 0 6 45 c7 46 10 52 61 108 15 18 33 39 40 48 25 35
148 51 215 28z"/>
<path d="M3900 8321 c0 -11 7 -26 15 -34 8 -8 22 -45 31 -81 9 -36 20 -66 25
-66 5 0 9 -7 9 -15 0 -19 31 -109 40 -115 3 -3 15 -38 26 -79 10 -41 24 -79
30 -85 5 -6 19 -44 29 -83 10 -40 22 -73 26 -73 4 0 10 -12 13 -27 14 -57 40
-138 47 -143 4 -3 14 -32 23 -64 8 -33 19 -62 24 -65 5 -3 17 -36 27 -74 14
-52 23 -69 39 -73 12 -2 88 -3 170 -2 l150 3 20 75 c11 41 23 77 27 80 3 3 15
33 25 68 10 34 22 62 26 62 4 0 8 5 8 12 0 18 43 152 50 158 4 3 15 37 25 75
10 39 22 72 25 75 4 3 15 32 25 65 10 33 22 62 25 65 4 3 17 43 30 90 14 47
28 88 32 91 5 3 16 32 25 65 9 32 20 61 23 64 4 3 10 15 14 28 l7 22 -155 0
c-172 0 -158 6 -171 -77 -4 -24 -10 -43 -14 -43 -4 0 -18 -45 -31 -100 -13
-55 -27 -100 -30 -100 -4 0 -15 -38 -25 -85 -10 -47 -21 -85 -25 -85 -4 0 -15
-36 -25 -80 -10 -44 -22 -80 -26 -80 -4 0 -10 -19 -14 -42 -11 -67 -22 -77
-30 -30 -4 23 -10 42 -15 42 -4 0 -16 33 -25 73 -10 39 -21 74 -25 77 -4 3
-15 38 -25 78 -10 39 -22 72 -26 72 -3 0 -9 15 -13 33 -9 48 -39 141 -47 147
-3 3 -15 40 -24 83 -10 42 -22 77 -26 77 -4 0 -9 9 -12 20 -5 19 -14 20 -166
20 -152 0 -161 -1 -161 -19z"/>
<path d="M5775 8040 c-11 -17 -65 -194 -65 -212 0 -16 60 -18 953 -21 1059 -3
989 1 1143 -72 156 -75 270 -193 350 -360 79 -168 74 -13 74 -2154 0 -1723 -2
-1911 -16 -1925 -13 -14 -49 -16 -240 -16 -132 0 -233 4 -244 10 -10 6 -33 37
-51 70 -41 77 -112 143 -197 183 -60 28 -77 32 -157 32 -112 0 -188 -26 -270
-93 -128 -105 -182 -274 -140 -436 53 -203 261 -341 461 -307 127 23 242 106
303 221 18 33 37 62 43 66 6 4 117 6 247 5 206 -2 238 -4 249 -18 17 -24 16
-329 -2 -425 -27 -141 -72 -239 -167 -365 -31 -41 -46 -68 -40 -73 6 -3 61
-21 123 -40 l111 -34 39 44 c54 61 133 225 166 345 l27 100 3 2255 c2 1606 0
2284 -8 2355 -13 113 -63 278 -112 364 -106 188 -240 311 -443 407 -106 50
-201 77 -330 93 -119 15 -1801 15 -1810 1z m1633 -4740 c49 -30 72 -75 72
-141 0 -62 -22 -105 -73 -143 -42 -31 -140 -30 -186 3 -37 27 -70 90 -71 136
0 45 40 116 79 142 45 30 132 32 179 3z"/>
<path d="M6155 7496 c-70 -17 -113 -40 -181 -94 -46 -37 -68 -65 -99 -125 -35
-71 -39 -86 -43 -170 -5 -103 16 -184 65 -258 l26 -40 -80 -82 c-44 -45 -90
-95 -104 -111 -13 -15 -44 -44 -68 -62 l-44 -34 -578 0 -579 0 0 -125 0 -125
1054 0 1053 0 44 -34 c24 -18 55 -47 68 -62 14 -16 60 -66 104 -111 l80 -82
-26 -40 c-49 -74 -70 -155 -65 -258 4 -84 8 -99 43 -170 31 -60 53 -88 99
-125 109 -87 219 -120 337 -99 140 24 243 102 302 229 60 128 46 302 -33 417
-84 122 -241 198 -373 181 l-50 -7 -186 185 c-129 128 -200 191 -231 205 -42
19 -65 21 -370 21 l-325 0 80 80 80 81 51 -7 c135 -16 290 59 374 181 79 115
93 289 33 417 -41 87 -101 151 -177 188 -98 48 -186 59 -281 36z m150 -255
c54 -25 85 -61 96 -110 16 -70 -13 -140 -72 -175 -45 -27 -127 -25 -172 3 -36
22 -77 90 -77 127 0 68 54 146 114 163 47 14 67 12 111 -8z m980 -1412 c84
-50 95 -178 21 -246 -46 -43 -100 -58 -153 -44 -68 19 -123 92 -123 165 0 33
39 103 68 122 56 37 130 38 187 3z"/>
<path d="M706 7134 c-54 -53 -132 -201 -169 -319 -14 -45 -30 -126 -37 -180
-8 -73 -10 -736 -7 -2405 3 -2515 -1 -2322 57 -2500 88 -268 318 -504 595
-611 152 -59 232 -71 533 -76 l272 -5 0 125 0 125 -272 4 c-235 4 -284 8 -349
26 -259 70 -448 236 -538 471 -59 155 -56 29 -56 2122 0 1881 0 1927 19 1948
18 20 28 21 250 21 127 0 236 -4 242 -8 6 -4 26 -35 44 -70 82 -155 255 -243
421 -213 140 24 243 102 302 229 60 128 46 302 -33 417 -92 133 -254 204 -401
176 -125 -25 -237 -109 -295 -222 -13 -26 -27 -50 -32 -53 -5 -3 -116 -6 -247
-7 -302 -1 -278 -19 -270 200 14 350 63 517 202 688 25 30 41 58 36 62 -12 12
-207 71 -231 71 -11 0 -28 -7 -36 -16z m1029 -1005 c84 -50 95 -178 21 -246
-46 -43 -100 -58 -153 -44 -68 19 -123 92 -123 165 0 33 39 103 68 122 56 37
130 38 187 3z"/>
<path d="M4485 5895 c-154 -14 -264 -29 -310 -44 -16 -5 -57 -14 -90 -21 -33
-7 -71 -16 -85 -20 -14 -4 -45 -13 -70 -20 -25 -7 -56 -16 -69 -22 -14 -5 -66
-23 -117 -39 -52 -16 -96 -34 -99 -39 -3 -6 -13 -10 -20 -10 -24 0 -258 -110
-380 -179 -38 -22 -88 -49 -110 -61 -71 -39 -315 -203 -315 -211 0 -5 -7 -9
-15 -9 -8 0 -15 -4 -15 -10 0 -5 -4 -10 -10 -10 -10 0 -37 -20 -72 -52 -10
-10 -20 -18 -23 -18 -5 0 -38 -26 -65 -51 -9 -8 -25 -22 -37 -30 -25 -17 -101
-82 -151 -128 -238 -217 -256 -234 -288 -277 -25 -32 -26 -35 -10 -59 9 -14
33 -39 53 -57 41 -38 61 -56 203 -188 159 -148 161 -150 276 -241 128 -101
280 -209 294 -209 6 0 10 -4 10 -10 0 -5 7 -10 15 -10 8 0 15 -4 15 -10 0 -5
5 -10 12 -10 6 0 19 -6 27 -14 9 -7 36 -24 61 -37 25 -13 47 -26 50 -29 5 -5
69 -40 160 -87 30 -15 57 -31 58 -35 2 -5 8 -8 13 -8 5 0 47 -18 93 -40 46
-22 87 -40 91 -40 4 0 21 -6 38 -14 69 -29 115 -46 182 -67 39 -11 88 -27 110
-34 92 -29 157 -45 255 -64 30 -5 80 -15 110 -21 229 -48 604 -49 855 -4 139
26 267 52 305 64 14 5 66 20 115 35 89 27 191 64 252 91 17 8 34 14 38 14 5 0
40 15 79 34 39 19 91 43 116 55 54 26 186 96 255 135 92 53 295 189 295 197 0
5 7 9 15 9 8 0 15 3 15 8 0 4 20 20 45 35 25 16 45 33 45 38 0 5 4 9 10 9 5 0
18 6 27 14 92 75 151 125 173 146 15 14 80 75 145 135 218 201 230 218 205
265 -6 11 -59 66 -118 124 -146 141 -163 158 -197 184 -17 13 -51 44 -77 68
-26 24 -49 44 -53 44 -3 0 -16 11 -29 25 -13 14 -26 25 -30 25 -3 0 -39 26
-79 58 -39 32 -97 76 -127 97 -30 22 -56 43 -58 47 -2 5 -10 8 -18 8 -8 0 -14
5 -14 10 0 6 -7 10 -15 10 -8 0 -15 5 -15 10 0 6 -5 10 -11 10 -6 0 -25 11
-42 24 -18 13 -52 34 -77 47 -25 13 -47 27 -50 30 -5 6 -53 32 -210 114 -109
56 -217 105 -233 105 -7 0 -17 4 -23 10 -21 21 -306 112 -439 140 -33 7 -75
17 -92 22 -49 14 -139 26 -318 43 -184 17 -246 17 -440 0z m403 -200 c170 -33
274 -62 342 -96 19 -9 53 -25 75 -35 57 -25 165 -94 165 -105 0 -5 5 -9 10 -9
24 0 181 -157 230 -230 8 -12 21 -28 28 -36 6 -7 12 -17 12 -23 0 -5 6 -16 13
-23 32 -34 89 -177 117 -296 26 -109 28 -341 4 -440 -28 -113 -77 -238 -127
-327 -23 -41 -111 -155 -119 -155 -4 0 -8 -7 -8 -15 0 -8 -3 -15 -7 -15 -5 -1
-37 -28 -73 -61 -72 -67 -228 -176 -266 -185 -13 -3 -24 -10 -24 -15 0 -5 -5
-9 -11 -9 -6 0 -27 -7 -47 -16 -59 -26 -75 -32 -102 -39 -14 -3 -47 -12 -75
-19 -117 -32 -269 -49 -370 -43 -96 6 -218 25 -297 47 -21 5 -53 14 -70 19
-46 12 -74 24 -163 68 -112 55 -115 57 -115 65 0 5 -6 8 -13 8 -13 0 -75 48
-165 128 -30 26 -58 49 -63 50 -5 2 -9 10 -9 18 0 8 -4 14 -8 14 -8 0 -93 111
-119 155 -109 183 -143 312 -143 535 0 161 12 246 46 327 8 17 14 36 14 42 0
6 20 50 45 97 41 77 65 114 136 206 27 35 129 134 160 156 13 8 26 19 29 22 9
12 125 86 160 102 19 9 60 27 90 41 88 41 143 57 315 91 96 19 307 20 403 1z
m927 -239 c103 -46 246 -121 307 -162 21 -13 40 -24 44 -24 3 0 44 -25 90 -55
47 -30 89 -55 94 -55 6 0 10 -4 10 -8 0 -4 39 -35 88 -69 48 -33 130 -95 182
-137 52 -42 111 -89 130 -104 34 -27 87 -74 188 -167 28 -27 52 -55 52 -63 0
-14 -96 -112 -186 -189 -27 -23 -63 -55 -81 -70 -33 -30 -59 -51 -161 -133
-122 -97 -349 -251 -427 -290 -16 -8 -32 -18 -35 -22 -9 -12 -343 -179 -352
-176 -5 2 12 25 37 51 25 26 45 50 45 53 0 3 6 12 13 20 6 8 17 20 22 27 19
23 69 101 81 127 4 8 12 22 19 30 11 14 59 128 84 200 33 94 43 164 48 326 4
147 2 186 -16 270 -11 55 -30 124 -42 154 -11 30 -24 67 -29 81 -8 27 -17 44
-71 144 -32 60 -82 133 -139 204 -29 35 -48 61 -43 59 4 -2 26 -12 48 -22z
m-2217 -9 c-23 -18 -108 -134 -108 -146 0 -6 -3 -11 -7 -11 -12 0 -95 -150
-119 -215 -74 -199 -88 -274 -87 -480 1 -134 5 -193 17 -230 9 -27 16 -60 16
-72 0 -12 7 -39 16 -60 9 -21 22 -51 29 -68 20 -50 79 -170 86 -175 3 -3 18
-25 32 -50 14 -25 38 -57 52 -72 14 -15 25 -29 25 -32 0 -3 20 -27 45 -53 25
-26 42 -49 37 -51 -9 -3 -343 164 -352 176 -3 4 -25 18 -50 31 -71 38 -230
144 -230 153 0 4 -7 8 -15 8 -8 0 -15 5 -15 10 0 6 -7 10 -15 10 -8 0 -15 4
-15 9 0 5 -20 22 -45 38 -25 15 -45 31 -45 36 0 4 -5 7 -10 7 -6 0 -21 11 -34
25 -13 14 -26 25 -30 25 -7 0 -26 17 -127 109 -31 28 -58 51 -61 51 -3 0 -31
25 -63 55 -31 30 -75 69 -96 87 -22 18 -39 39 -38 48 0 8 29 40 65 70 35 30
77 66 92 80 15 14 54 47 87 75 33 27 62 53 63 57 2 5 8 8 13 8 6 0 20 11 33
25 13 14 27 25 31 25 4 0 18 11 31 25 13 14 28 25 34 25 5 0 10 5 10 10 0 6 7
10 15 10 8 0 15 3 15 8 0 4 21 21 45 37 25 17 45 33 45 38 0 4 7 7 15 7 8 0
15 5 15 10 0 6 6 10 14 10 8 0 16 4 18 9 4 11 195 131 209 131 5 0 9 4 9 9 0
5 8 11 18 14 9 3 42 20 72 38 87 51 263 139 269 134 2 -3 -2 -11 -11 -18z"/>
<path d="M4590 5410 c-79 -9 -157 -25 -196 -41 -86 -35 -120 -50 -134 -59 -8
-5 -32 -19 -52 -30 -41 -22 -154 -113 -179 -145 -10 -11 -29 -33 -43 -50 -14
-16 -29 -38 -32 -47 -3 -10 -9 -18 -14 -18 -4 0 -13 -12 -19 -27 -7 -16 -23
-48 -36 -73 -13 -25 -24 -53 -24 -63 -1 -10 -6 -28 -13 -40 -24 -44 -35 -192
-23 -300 6 -56 17 -112 23 -124 7 -12 12 -30 13 -40 0 -10 11 -38 24 -63 13
-25 29 -57 36 -72 6 -16 15 -28 19 -28 5 0 10 -7 12 -15 9 -42 171 -199 248
-241 19 -10 42 -24 50 -30 13 -10 55 -26 160 -63 116 -41 354 -54 480 -27 79
18 146 39 156 49 4 4 14 7 23 7 24 0 172 91 221 136 23 21 52 48 64 59 71 66
148 198 197 335 20 56 23 82 22 210 0 156 -7 183 -80 340 -57 121 -203 278
-312 334 -20 10 -38 22 -41 25 -3 4 -32 17 -65 30 -33 13 -70 27 -82 32 -85
33 -283 53 -403 39z m498 -287 c28 -9 52 -20 52 -24 0 -5 6 -9 13 -9 24 0 107
-93 133 -149 64 -134 12 -243 -131 -276 -160 -38 -344 79 -361 228 -11 94 1
140 50 190 68 68 121 77 244 40z"/>
<path d="M1536 3340 c-121 -39 -232 -146 -272 -263 -25 -72 -25 -206 0 -272
30 -80 85 -155 148 -201 81 -60 143 -79 253 -79 80 0 97 4 157 32 78 37 149
99 185 162 51 89 -5 81 546 81 l490 0 181 -184 c148 -151 188 -186 221 -195
28 -8 349 -11 1035 -11 946 0 997 1 1030 18 36 19 70 71 70 107 0 35 -35 88
-71 107 -32 17 -83 18 -1003 18 l-969 0 -176 174 c-97 95 -192 182 -211 192
-33 18 -71 19 -562 24 -289 3 -528 7 -531 10 -2 3 -19 34 -38 69 -97 184 -295
271 -483 211z m207 -265 c48 -33 67 -72 67 -137 0 -99 -60 -158 -161 -158 -42
0 -64 6 -89 23 -93 63 -93 211 0 275 48 32 132 31 183 -3z"/>
<path d="M5848 1935 c-35 -20 -69 -85 -70 -133 0 -51 25 -107 59 -128 15 -10
31 -23 34 -27 8 -12 90 -11 98 0 3 4 17 14 31 21 64 34 88 125 52 203 -11 24
-31 50 -43 58 -34 21 -129 24 -161 6z"/>
<path d="M3140 1902 c0 -4 -26 -12 -59 -19 -60 -11 -181 -60 -181 -73 0 -4
-11 -12 -25 -18 -81 -37 -206 -212 -230 -319 -3 -18 -10 -33 -15 -33 -13 0
-30 -120 -30 -216 0 -90 16 -205 29 -214 4 -3 17 -34 30 -70 41 -116 140 -251
208 -286 21 -10 43 -24 48 -30 15 -17 139 -64 168 -64 14 0 27 -6 29 -12 6
-16 236 -18 246 -2 4 6 23 13 42 17 57 9 146 46 174 72 15 14 31 25 35 25 5 0
36 28 71 63 72 72 118 150 156 262 24 72 27 95 28 225 1 113 -3 160 -18 215
-21 79 -69 187 -91 205 -8 7 -15 17 -15 23 0 17 -72 91 -120 122 -25 16 -49
35 -55 42 -16 20 -101 52 -170 65 -36 6 -65 15 -65 20 0 4 -43 8 -95 8 -52 0
-95 -3 -95 -8z m164 -232 c33 -5 62 -13 65 -18 3 -5 27 -19 53 -31 63 -30 129
-114 159 -200 42 -126 37 -315 -13 -428 -28 -63 -98 -145 -145 -169 -21 -10
-41 -23 -44 -27 -3 -5 -36 -13 -72 -20 -68 -11 -203 1 -216 21 -3 5 -17 15
-31 22 -38 20 -90 64 -90 76 0 6 -8 18 -19 28 -10 9 -27 36 -37 59 -10 23 -24
48 -31 54 -33 36 -33 340 0 376 7 6 21 31 31 54 10 23 27 50 37 59 11 10 19
22 19 28 0 14 98 86 115 86 8 0 15 5 17 11 3 9 27 14 133 28 6 0 37 -3 69 -9z"/>
<path d="M5167 1784 c-4 -4 -7 -67 -7 -141 l0 -133 -70 0 -70 0 0 -89 c0 -122
-1 -121 76 -121 l64 0 0 -226 c0 -292 14 -388 62 -422 10 -7 18 -19 18 -25 0
-14 77 -67 96 -67 7 0 14 -6 17 -12 5 -16 184 -18 195 -3 4 6 19 16 35 22 27
12 27 13 27 110 l0 98 -74 -3 c-71 -4 -76 -3 -100 23 l-26 28 0 238 0 239 101
0 c74 0 104 4 115 14 10 11 14 40 14 105 l0 91 -115 0 -114 0 -3 138 -3 137
-116 3 c-63 1 -118 -1 -122 -4z"/>
<path d="M4465 1533 c-60 -12 -115 -41 -155 -80 l-45 -43 -3 50 -3 50 -120 0
-119 0 0 -670 0 -670 120 0 120 0 0 248 1 247 27 -32 c31 -36 89 -73 114 -73
9 0 18 -6 20 -12 6 -17 206 -18 216 -2 4 6 21 14 37 18 108 24 230 176 257
324 6 34 15 62 20 62 4 0 8 38 8 85 0 47 -4 85 -8 85 -4 0 -13 28 -19 63 -10
55 -35 119 -79 199 -8 15 -29 38 -47 53 -17 14 -42 35 -54 46 -45 41 -206 70
-288 52z m121 -252 c23 -10 50 -31 60 -46 11 -15 27 -35 36 -45 23 -26 38 -85
38 -155 0 -66 -16 -135 -30 -135 -6 0 -10 -6 -10 -13 0 -18 -82 -95 -115 -107
-34 -13 -136 -13 -169 0 -42 15 -97 72 -119 120 -16 35 -20 66 -21 140 0 85 3
100 28 148 28 51 61 83 107 101 42 17 150 12 195 -8z"/>
<path d="M6575 1533 c-65 -15 -127 -36 -137 -46 -7 -7 -32 -25 -55 -41 -44
-30 -115 -116 -127 -154 -4 -12 -11 -22 -16 -22 -5 0 -17 -26 -26 -57 -26 -84
-26 -287 0 -363 10 -30 22 -57 26 -60 3 -3 20 -25 37 -50 67 -98 175 -180 240
-180 12 0 23 -6 26 -12 5 -18 239 -18 245 0 2 6 10 12 18 12 45 0 184 102 184
136 0 13 -89 132 -113 153 -17 13 -18 13 -94 -49 -23 -19 -109 -33 -155 -26
-26 4 -57 16 -70 28 -12 11 -37 31 -53 44 -18 14 -38 43 -49 73 -30 86 -19
249 19 281 8 7 15 18 15 24 0 6 22 25 48 41 43 28 54 30 137 30 85 0 93 -2
137 -33 26 -17 49 -32 52 -32 9 0 65 64 66 75 0 6 14 26 30 45 17 19 30 42 30
51 0 9 -19 29 -42 45 -24 16 -45 32 -48 35 -33 41 -234 73 -325 52z"/>
<path d="M7375 1534 c-106 -28 -127 -38 -168 -78 -53 -50 -80 -100 -97 -178
-28 -123 46 -257 160 -293 14 -4 27 -11 30 -14 3 -4 49 -20 103 -36 55 -15
104 -34 110 -41 32 -36 37 -45 37 -70 0 -31 -40 -70 -82 -80 -60 -13 -184 25
-233 70 -15 14 -31 26 -35 26 -6 0 -55 -69 -92 -130 -16 -27 -16 -28 22 -64
43 -40 104 -71 165 -82 22 -4 43 -12 47 -17 10 -16 170 -15 176 1 2 6 14 12
26 12 37 0 119 48 153 89 100 121 97 297 -6 400 -44 43 -120 81 -163 81 -10 0
-18 4 -18 8 0 4 -31 16 -69 25 -92 24 -122 59 -101 122 13 39 45 55 108 55 49
0 111 -14 121 -27 10 -13 70 -53 80 -53 5 0 23 22 41 49 17 27 38 55 46 61 24
21 16 48 -23 77 -21 15 -44 34 -51 40 -32 30 -228 62 -287 47z"/>
<path d="M5827 1513 l-27 -4 2 -472 3 -472 115 0 115 0 3 473 2 472 -32 1
c-18 0 -60 2 -93 3 -33 2 -72 1 -88 -1z"/>
<path d="M4643 63 c31 -2 83 -2 115 0 31 2 5 3 -58 3 -63 0 -89 -1 -57 -3z"/>
</g>
</svg>
